{
  "accessors": [
    {
      "bufferView": 12,
      "componentType": 5126,
      "count": 6172,
      "max": [
        5.169462203979492,
        8.520679473876953,
        2.565497875213623
      ],
      "min": [
        -5.169459819793701,
        -4.4524438180815196e-07,
        -2.5654983520507813
      ],
      "type": "VEC3"
    },
    {
      "bufferView": 13,
      "componentType": 5126,
      "count": 6172,
      "max": [
        1.0,
        0.9999690055847168,
        1.0
      ],
      "min": [
        -1.0,
        -0.9999690055847168,
        -1.0
      ],
      "type": "VEC3"
    },
    {
      "bufferView": 14,
      "componentType": 5126,
      "count": 6172,
      "max": [
        1.0,
        1.0,
        1.0,
        1.0
      ],
      "min": [
        -1.0,
        -0.9997521042823792,
        -0.9999690055847168,
        -1.0
      ],
      "type": "VEC4"
    },
    {
      "bufferView": 15,
      "componentType": 5126,
      "count": 6172,
      "max": [
        2.01171875,
        1.173828125
      ],
      "min": [
        -1.1669921875,
        -0.1744384765625
      ],
      "type": "VEC2"
    },
    {
      "bufferView": 16,
      "componentType": 5126,
      "count": 6172,
      "max": [
        0.99951171875,
        1.0
      ],
      "min": [
        0.0,
        0.0
      ],
      "type": "VEC2"
    },
    {
      "bufferView": 17,
      "componentType": 5125,
      "count": 14073,
      "max": [
        6171
      ],
      "min": [
        0
      ],
      "type": "SCALAR"
    },
    {
      "bufferView": 18,
      "componentType": 5126,
      "count": 3278,
      "max": [
        5.363846778869629,
        8.713051795959473,
        2.6023824214935303
      ],
      "min": [
        -5.363844394683838,
        -4.957121859661129e-07,
        -2.602384567260742
      ],
      "type": "VEC3"
    },
    {
      "bufferView": 19,
      "componentType": 5126,
      "count": 3278,
      "max": [
        0.9992259740829468,
        0.9999690055847168,
        1.0
      ],
      "min": [
        -0.9992259740829468,
        -1.0,
        -1.0
      ],
      "type": "VEC3"
    },
    {
      "bufferView": 20,
      "componentType": 5126,
      "count": 3278,
      "max": [
        1.0,
        0.9998760223388672,
        1.0,
        1.0
      ],
      "min": [
        -1.0,
        -0.9959307312965393,
        -1.0,
        -1.0
      ],
      "type": "VEC4"
    },
    {
      "bufferView": 21,
      "componentType": 5126,
      "count": 3278,
      "max": [
        1.421875,
        1.0
      ],
      "min": [
        -0.204345703125,
        -0.10260009765625
      ],
      "type": "VEC2"
    },
    {
      "bufferView": 22,
      "componentType": 5126,
      "count": 3278,
      "max": [
        0.99951171875,
        1.0
      ],
      "min": [
        0.0,
        0.0011758804321289063
      ],
      "type": "VEC2"
    },
    {
      "bufferView": 23,
      "componentType": 5125,
      "count": 7620,
      "max": [
        3277
      ],
      "min": [
        0
      ],
      "type": "SCALAR"
    },
    {
      "bufferView": 24,
      "componentType": 5126,
      "count": 437,
      "max": [
        5.167449951171875,
        8.520679473876953,
        0.9468825459480286
      ],
      "min": [
        -5.167446613311768,
        7.127692699432373,
        -0.9624450206756592
      ],
      "type": "VEC3"
    },
    {
      "bufferView": 25,
      "componentType": 5126,
      "count": 437,
      "max": [
        0.9591147899627686,
        0.9262953996658325,
        0.9947196841239929
      ],
      "min": [
        -0.9591147899627686,
        -0.10262980312108994,
        -0.9947196841239929
      ],
      "type": "VEC3"
    },
    {
      "bufferView": 26,
      "componentType": 5126,
      "count": 437,
      "max": [
        0.9998450875282288,
        0.8844984769821167,
        0.17320150136947632,
        1.0
      ],
      "min": [
        -0.9998450875282288,
        -0.8844984769821167,
        -0.6390246748924255,
        -1.0
      ],
      "type": "VEC4"
    },
    {
      "bufferView": 27,
      "componentType": 5126,
      "count": 437,
      "max": [
        1.1259765625,
        0.7802734375
      ],
      "min": [
        -0.219970703125,
        0.22021484375
      ],
      "type": "VEC2"
    },
    {
      "bufferView": 28,
      "componentType": 5126,
      "count": 437,
      "max": [
        0.10064697265625,
        0.99951171875
      ],
      "min": [
        0.0,
        0.456787109375
      ],
      "type": "VEC2"
    },
    {
      "bufferView": 29,
      "componentType": 5125,
      "count": 1563,
      "max": [
        436
      ],
      "min": [
        0
      ],
      "type": "SCALAR"
    }
  ],
  "asset": {
    "version": "2.0"
  },
  "bufferViews": [
    {
      "buffer": 0,
      "byteLength": 827478
    },
    {
      "buffer": 0,
      "byteLength": 663423,
      "byteOffset": 827478
    },
    {
      "buffer": 0,
      "byteLength": 1149314,
      "byteOffset": 1490901
    },
    {
      "buffer": 0,
      "byteLength": 2636543,
      "byteOffset": 2640215
    },
    {
      "buffer": 0,
      "byteLength": 446413,
      "byteOffset": 5276758
    },
    {
      "buffer": 0,
      "byteLength": 245764,
      "byteOffset": 5723171
    },
    {
      "buffer": 0,
      "byteLength": 732172,
      "byteOffset": 5968935
    },
    {
      "buffer": 0,
      "byteLength": 1703642,
      "byteOffset": 6701107
    },
    {
      "buffer": 0,
      "byteLength": 1075448,
      "byteOffset": 8404749
    },
    {
      "buffer": 0,
      "byteLength": 435677,
      "byteOffset": 9480197
    },
    {
      "buffer": 0,
      "byteLength": 1050707,
      "byteOffset": 9915874
    },
    {
      "buffer": 0,
      "byteLength": 898345,
      "byteOffset": 10966581
    },
    {
      "buffer": 0,
      "byteLength": 74064,
      "byteOffset": 11864928,
      "target": 34962
    },
    {
      "buffer": 0,
      "byteLength": 74064,
      "byteOffset": 11938992,
      "target": 34962
    },
    {
      "buffer": 0,
      "byteLength": 98752,
      "byteOffset": 12013056,
      "target": 34962
    },
    {
      "buffer": 0,
      "byteLength": 49376,
      "byteOffset": 12111808,
      "target": 34962
    },
    {
      "buffer": 0,
      "byteLength": 49376,
      "byteOffset": 12161184,
      "target": 34962
    },
    {
      "buffer": 0,
      "byteLength": 56292,
      "byteOffset": 12210560,
      "target": 34963
    },
    {
      "buffer": 0,
      "byteLength": 39336,
      "byteOffset": 12266852,
      "target": 34962
    },
    {
      "buffer": 0,
      "byteLength": 39336,
      "byteOffset": 12306188,
      "target": 34962
    },
    {
      "buffer": 0,
      "byteLength": 52448,
      "byteOffset": 12345524,
      "target": 34962
    },
    {
      "buffer": 0,
      "byteLength": 26224,
      "byteOffset": 12397972,
      "target": 34962
    },
    {
      "buffer": 0,
      "byteLength": 26224,
      "byteOffset": 12424196,
      "target": 34962
    },
    {
      "buffer": 0,
      "byteLength": 30480,
      "byteOffset": 12450420,
      "target": 34963
    },
    {
      "buffer": 0,
      "byteLength": 5244,
      "byteOffset": 12480900,
      "target": 34962
    },
    {
      "buffer": 0,
      "byteLength": 5244,
      "byteOffset": 12486144,
      "target": 34962
    },
    {
      "buffer": 0,
      "byteLength": 6992,
      "byteOffset": 12491388,
      "target": 34962
    },
    {
      "buffer": 0,
      "byteLength": 3496,
      "byteOffset": 12498380,
      "target": 34962
    },
    {
      "buffer": 0,
      "byteLength": 3496,
      "byteOffset": 12501876,
      "target": 34962
    },
    {
      "buffer": 0,
      "byteLength": 6252,
      "byteOffset": 12505372,
      "target": 34963
    }
  ],
  "buffers": [
    {
      "byteLength": 12511624,
      "uri": "ex_asian_town.bin"
    }
  ],
  "images": [
    {
      "bufferView": 0,
      "mimeType": "image/png",
      "name": "MI_wood_03_SM_nad_props_Cube_294_BaseColor.png"
    },
    {
      "bufferView": 1,
      "mimeType": "image/png",
      "name": "MI_wood_03_SM_nad_props_Cube_294_MetallicRoughness.png"
    },
    {
      "bufferView": 2,
      "mimeType": "image/png",
      "name": "MI_wood_03_SM_nad_props_Cube_294_Normal.png"
    },
    {
      "bufferView": 3,
      "mimeType": "image/png",
      "name": "MI_wood_03_SM_nad_props_Cube_294_Occlusion.png"
    },
    {
      "bufferView": 4,
      "mimeType": "image/png",
      "name": "MI_wood_04_SM_nad_props_Cube_294_BaseColor.png"
    },
    {
      "bufferView": 5,
      "mimeType": "image/png",
      "name": "MI_wood_04_SM_nad_props_Cube_294_MetallicRoughness.png"
    },
    {
      "bufferView": 6,
      "mimeType": "image/png",
      "name": "MI_wood_04_SM_nad_props_Cube_294_Normal.png"
    },
    {
      "bufferView": 7,
      "mimeType": "image/png",
      "name": "MI_wood_04_SM_nad_props_Cube_294_Occlusion.png"
    },
    {
      "bufferView": 8,
      "mimeType": "image/png",
      "name": "MI_roof_tile_SM_nad_props_Cube_294_BaseColor.png"
    },
    {
      "bufferView": 9,
      "mimeType": "image/png",
      "name": "MI_roof_tile_SM_nad_props_Cube_294_MetallicRoughness.png"
    },
    {
      "bufferView": 10,
      "mimeType": "image/png",
      "name": "MI_roof_tile_SM_nad_props_Cube_294_Normal.png"
    },
    {
      "bufferView": 11,
      "mimeType": "image/png",
      "name": "MI_roof_tile_SM_nad_props_Cube_294_Occlusion.png"
    }
  ],
  "materials": [
    {
      "alphaCutoff": 0.33329999446868896,
      "alphaMode": "MASK",
      "name": "MI_wood_03_SM_nad_props_Cube_294",
      "normalTexture": {
        "index": 2
      },
      "occlusionTexture": {
        "index": 3
      },
      "pbrMetallicRoughness": {
        "baseColorTexture": {
          "index": 0
        },
        "metallicRoughnessTexture": {
          "index": 1
        }
      }
    },
    {
      "alphaCutoff": 0.33329999446868896,
      "alphaMode": "MASK",
      "name": "MI_wood_04_SM_nad_props_Cube_294",
      "normalTexture": {
        "index": 6
      },
      "occlusionTexture": {
        "index": 7
      },
      "pbrMetallicRoughness": {
        "baseColorTexture": {
          "index": 4
        },
        "metallicRoughnessTexture": {
          "index": 5
        }
      }
    },
    {
      "name": "MI_roof_tile_SM_nad_props_Cube_294",
      "normalTexture": {
        "index": 10
      },
      "occlusionTexture": {
        "index": 11
      },
      "pbrMetallicRoughness": {
        "baseColorTexture": {
          "index": 8
        },
        "metallicRoughnessTexture": {
          "index": 9
        }
      }
    }
  ],
  "meshes": [
    {
      "primitives": [
        {
          "attributes": {
            "NORMAL": 1,
            "POSITION": 0,
            "TANGENT": 2,
            "TEXCOORD_0": 3,
            "TEXCOORD_1": 4
          },
          "indices": 5,
          "material": 0,
          "mode": 4
        },
        {
          "attributes": {
            "NORMAL": 7,
            "POSITION": 6,
            "TANGENT": 8,
            "TEXCOORD_0": 9,
            "TEXCOORD_1": 10
          },
          "indices": 11,
          "material": 1,
          "mode": 4
        },
        {
          "attributes": {
            "NORMAL": 13,
            "POSITION": 12,
            "TANGENT": 14,
            "TEXCOORD_0": 15,
            "TEXCOORD_1": 16
          },
          "indices": 17,
          "material": 2,
          "mode": 4
        }
      ]
    }
  ],
  "nodes": [
    {
      "mesh": 0,
      "name": "SM_nad_props_Cube_294",
      "rotation": [
        0.0,
        0.17364820837974548,
        0.0,
        0.9848078489303589
      ],
      "scale": [
        2.0109059810638428,
        2.0109059810638428,
        2.0109059810638428
      ],
      "translation": [
        0.5999999642372131,
        9.09999942779541,
        210.89999389648438
      ]
    }
  ],
  "samplers": [
    {
      "wrapS": 10497,
      "wrapT": 10497
    }
  ],
  "scenes": [
    {
      "nodes": [
        0
      ]
    }
  ],
  "textures": [
    {
      "name": "MI_wood_03_SM_nad_props_Cube_294_BaseColor",
      "sampler": 0,
      "source": 0
    },
    {
      "name": "MI_wood_03_SM_nad_props_Cube_294_MetallicRoughness",
      "sampler": 0,
      "source": 1
    },
    {
      "name": "MI_wood_03_SM_nad_props_Cube_294_Normal",
      "sampler": 0,
      "source": 2
    },
    {
      "name": "MI_wood_03_SM_nad_props_Cube_294_Occlusion",
      "sampler": 0,
      "source": 3
    },
    {
      "name": "MI_wood_04_SM_nad_props_Cube_294_BaseColor",
      "sampler": 0,
      "source": 4
    },
    {
      "name": "MI_wood_04_SM_nad_props_Cube_294_MetallicRoughness",
      "sampler": 0,
      "source": 5
    },
    {
      "name": "MI_wood_04_SM_nad_props_Cube_294_Normal",
      "sampler": 0,
      "source": 6
    },
    {
      "name": "MI_wood_04_SM_nad_props_Cube_294_Occlusion",
      "sampler": 0,
      "source": 7
    },
    {
      "name": "MI_roof_tile_SM_nad_props_Cube_294_BaseColor",
      "sampler": 0,
      "source": 8
    },
    {
      "name": "MI_roof_tile_SM_nad_props_Cube_294_MetallicRoughness",
      "sampler": 0,
      "source": 9
    },
    {
      "name": "MI_roof_tile_SM_nad_props_Cube_294_Normal",
      "sampler": 0,
      "source": 10
    },
    {
      "name": "MI_roof_tile_SM_nad_props_Cube_294_Occlusion",
      "sampler": 0,
      "source": 11
    }
  ]
}
