{
  "accessors": [
    {
      "bufferView": 2,
      "componentType": 5126,
      "count": 65534,
      "max": [
        0.2663689851760864,
        1.9056843519210815,
        0.27813586592674255
      ],
      "min": [
        -0.2663689851760864,
        0.05086997151374817,
        -0.25346583127975464
      ],
      "type": "VEC3"
    },
    {
      "bufferView": 2,
      "byteOffset": 786408,
      "componentType": 5126,
      "count": 65534,
      "type": "VEC3"
    },
    {
      "bufferView": 3,
      "componentType": 5126,
      "count": 65534,
      "type": "VEC4"
    },
    {
      "bufferView": 1,
      "componentType": 5126,
      "count": 65534,
      "type": "VEC2"
    },
    {
      "bufferView": 0,
      "componentType": 5125,
      "count": 65757,
      "type": "SCALAR"
    },
    {
      "bufferView": 2,
      "byteOffset": 1572816,
      "componentType": 5126,
      "count": 65534,
      "max": [
        0.2663605511188507,
        1.9111562967300415,
        0.2792721688747406
      ],
      "min": [
        -0.2487620711326599,
        0.437653511762619,
        -0.25346583127975464
      ],
      "type": "VEC3"
    },
    {
      "bufferView": 2,
      "byteOffset": 2359224,
      "componentType": 5126,
      "count": 65534,
      "type": "VEC3"
    },
    {
      "bufferView": 3,
      "byteOffset": 1048544,
      "componentType": 5126,
      "count": 65534,
      "type": "VEC4"
    },
    {
      "bufferView": 1,
      "byteOffset": 524272,
      "componentType": 5126,
      "count": 65534,
      "type": "VEC2"
    },
    {
      "bufferView": 0,
      "byteOffset": 263028,
      "componentType": 5125,
      "count": 65733,
      "type": "SCALAR"
    },
    {
      "bufferView": 2,
      "byteOffset": 3145632,
      "componentType": 5126,
      "count": 33496,
      "max": [
        0.08002369850873947,
        1.848805546760559,
        0.2792721688747406
      ],
      "min": [
        -0.25540703535079956,
        0.4721178114414215,
        -0.242075115442276
      ],
      "type": "VEC3"
    },
    {
      "bufferView": 2,
      "byteOffset": 3547584,
      "componentType": 5126,
      "count": 33496,
      "type": "VEC3"
    },
    {
      "bufferView": 3,
      "byteOffset": 2097088,
      "componentType": 5126,
      "count": 33496,
      "type": "VEC4"
    },
    {
      "bufferView": 1,
      "byteOffset": 1048544,
      "componentType": 5126,
      "count": 33496,
      "type": "VEC2"
    },
    {
      "bufferView": 0,
      "byteOffset": 525960,
      "componentType": 5125,
      "count": 33528,
      "type": "SCALAR"
    },
    {
      "bufferView": 2,
      "byteOffset": 3949536,
      "componentType": 5126,
      "count": 65533,
      "max": [
        0.3192780911922455,
        2.677311658859253,
        0.8034014105796814
      ],
      "min": [
        -0.3154473900794983,
        -4.301202774047852,
        -0.6997219324111938
      ],
      "type": "VEC3"
    },
    {
      "bufferView": 2,
      "byteOffset": 4735932,
      "componentType": 5126,
      "count": 65533,
      "type": "VEC3"
    },
    {
      "bufferView": 3,
      "byteOffset": 2633024,
      "componentType": 5126,
      "count": 65533,
      "type": "VEC4"
    },
    {
      "bufferView": 1,
      "byteOffset": 1316512,
      "componentType": 5126,
      "count": 65533,
      "type": "VEC2"
    },
    {
      "bufferView": 0,
      "byteOffset": 660072,
      "componentType": 5125,
      "count": 66576,
      "type": "SCALAR"
    },
    {
      "bufferView": 2,
      "byteOffset": 5522328,
      "componentType": 5126,
      "count": 65533,
      "max": [
        0.33778834342956543,
        2.7026822566986084,
        0.8084127306938171
      ],
      "min": [
        -0.33778834342956543,
        -3.8867764472961426,
        -0.6997219324111938
      ],
      "type": "VEC3"
    },
    {
      "bufferView": 2,
      "byteOffset": 6308724,
      "componentType": 5126,
      "count": 65533,
      "type": "VEC3"
    },
    {
      "bufferView": 3,
      "byteOffset": 3681552,
      "componentType": 5126,
      "count": 65533,
      "type": "VEC4"
    },
    {
      "bufferView": 1,
      "byteOffset": 1840776,
      "componentType": 5126,
      "count": 65533,
      "type": "VEC2"
    },
    {
      "bufferView": 0,
      "byteOffset": 926376,
      "componentType": 5125,
      "count": 66207,
      "type": "SCALAR"
    },
    {
      "bufferView": 2,
      "byteOffset": 7095120,
      "componentType": 5126,
      "count": 33431,
      "max": [
        0.04567277804017067,
        -0.7499370574951172,
        0.36115702986717224
      ],
      "min": [
        -0.04566787928342819,
        -2.2963223457336426,
        0.226561039686203
      ],
      "type": "VEC3"
    },
    {
      "bufferView": 2,
      "byteOffset": 7496292,
      "componentType": 5126,
      "count": 33431,
      "type": "VEC3"
    },
    {
      "bufferView": 3,
      "byteOffset": 4730080,
      "componentType": 5126,
      "count": 33431,
      "type": "VEC4"
    },
    {
      "bufferView": 1,
      "byteOffset": 2365040,
      "componentType": 5126,
      "count": 33431,
      "type": "VEC2"
    },
    {
      "bufferView": 0,
      "byteOffset": 1191204,
      "componentType": 5125,
      "count": 33501,
      "type": "SCALAR"
    },
    {
      "bufferView": 2,
      "byteOffset": 7897464,
      "componentType": 5126,
      "count": 65534,
      "max": [
        0.2767734229564667,
        2.554173707962036,
        0.2908622920513153
      ],
      "min": [
        -0.2767734229564667,
        1.899222731590271,
        -0.26505598425865173
      ],
      "type": "VEC3"
    },
    {
      "bufferView": 2,
      "byteOffset": 8683872,
      "componentType": 5126,
      "count": 65534,
      "type": "VEC3"
    },
    {
      "bufferView": 3,
      "byteOffset": 5264976,
      "componentType": 5126,
      "count": 65534,
      "type": "VEC4"
    },
    {
      "bufferView": 1,
      "byteOffset": 2632488,
      "componentType": 5126,
      "count": 65534,
      "type": "VEC2"
    },
    {
      "bufferView": 0,
      "byteOffset": 1325208,
      "componentType": 5125,
      "count": 65631,
      "type": "SCALAR"
    },
    {
      "bufferView": 2,
      "byteOffset": 9470280,
      "componentType": 5126,
      "count": 1883,
      "max": [
        0.2767734229564667,
        2.231778383255005,
        0.2908622920513153
      ],
      "min": [
        -0.2767734229564667,
        2.2292017936706543,
        -0.26505598425865173
      ],
      "type": "VEC3"
    },
    {
      "bufferView": 2,
      "byteOffset": 9492876,
      "componentType": 5126,
      "count": 1883,
      "type": "VEC3"
    },
    {
      "bufferView": 3,
      "byteOffset": 6313520,
      "componentType": 5126,
      "count": 1883,
      "type": "VEC4"
    },
    {
      "bufferView": 1,
      "byteOffset": 3156760,
      "componentType": 5126,
      "count": 1883,
      "type": "VEC2"
    },
    {
      "bufferView": 0,
      "byteOffset": 1587732,
      "componentType": 5125,
      "count": 1917,
      "type": "SCALAR"
    }
  ],
  "asset": {
    "generator": "fab-model-conversion",
    "version": "2.0"
  },
  "bufferViews": [
    {
      "buffer": 0,
      "byteLength": 1595400,
      "target": 34963
    },
    {
      "buffer": 0,
      "byteLength": 3171824,
      "byteOffset": 1595400,
      "byteStride": 8,
      "target": 34962
    },
    {
      "buffer": 0,
      "byteLength": 9515472,
      "byteOffset": 4767224,
      "byteStride": 12,
      "target": 34962
    },
    {
      "buffer": 0,
      "byteLength": 6343648,
      "byteOffset": 14282696,
      "byteStride": 16,
      "target": 34962
    }
  ],
  "buffers": [
    {
      "byteLength": 20626344,
      "uri": "scene.bin"
    }
  ],
  "extensionsUsed": [
    "KHR_materials_specular"
  ],
  "images": [
    {
      "uri": "textures/Material.001_baseColor.png"
    },
    {
      "uri": "textures/Material.001_metallicRoughness.png"
    },
    {
      "uri": "textures/Material.001_normal.png"
    }
  ],
  "materials": [
    {
      "doubleSided": true,
      "extensions": {
        "KHR_materials_specular": {
          "specularColorFactor": [
            1.0,
            1.0,
            1.0
          ],
          "specularFactor": 0.4
        }
      },
      "name": "Material.001",
      "normalTexture": {
        "index": 2
      },
      "pbrMetallicRoughness": {
        "baseColorTexture": {
          "index": 0
        },
        "metallicRoughnessTexture": {
          "index": 1
        }
      }
    }
  ],
  "meshes": [
    {
      "name": "Extruded.002_Material.001_0",
      "primitives": [
        {
          "attributes": {
            "NORMAL": 1,
            "POSITION": 0,
            "TANGENT": 2,
            "TEXCOORD_0": 3
          },
          "indices": 4,
          "material": 0,
          "mode": 4
        }
      ]
    },
    {
      "name": "Extruded.002_Material.001_0",
      "primitives": [
        {
          "attributes": {
            "NORMAL": 6,
            "POSITION": 5,
            "TANGENT": 7,
            "TEXCOORD_0": 8
          },
          "indices": 9,
          "material": 0,
          "mode": 4
        }
      ]
    },
    {
      "name": "Extruded.002_Material.001_0",
      "primitives": [
        {
          "attributes": {
            "NORMAL": 11,
            "POSITION": 10,
            "TANGENT": 12,
            "TEXCOORD_0": 13
          },
          "indices": 14,
          "material": 0,
          "mode": 4
        }
      ]
    },
    {
      "name": "Sheet_124_Material.001_0",
      "primitives": [
        {
          "attributes": {
            "NORMAL": 16,
            "POSITION": 15,
            "TANGENT": 17,
            "TEXCOORD_0": 18
          },
          "indices": 19,
          "material": 0,
          "mode": 4
        }
      ]
    },
    {
      "name": "Sheet_124_Material.001_0",
      "primitives": [
        {
          "attributes": {
            "NORMAL": 21,
            "POSITION": 20,
            "TANGENT": 22,
            "TEXCOORD_0": 23
          },
          "indices": 24,
          "material": 0,
          "mode": 4
        }
      ]
    },
    {
      "name": "Sheet_124_Material.001_0",
      "primitives": [
        {
          "attributes": {
            "NORMAL": 26,
            "POSITION": 25,
            "TANGENT": 27,
            "TEXCOORD_0": 28
          },
          "indices": 29,
          "material": 0,
          "mode": 4
        }
      ]
    },
    {
      "name": "Sheet_95_Material.001_0",
      "primitives": [
        {
          "attributes": {
            "NORMAL": 31,
            "POSITION": 30,
            "TANGENT": 32,
            "TEXCOORD_0": 33
          },
          "indices": 34,
          "material": 0,
          "mode": 4
        }
      ]
    },
    {
      "name": "Sheet_95_Material.001_0",
      "primitives": [
        {
          "attributes": {
            "NORMAL": 36,
            "POSITION": 35,
            "TANGENT": 37,
            "TEXCOORD_0": 38
          },
          "indices": 39,
          "material": 0,
          "mode": 4
        }
      ]
    }
  ],
  "nodes": [
    {
      "children": [
        1
      ],
      "matrix": [
        1.0,
        0.0,
        0.0,
        0.0,
        0.0,
        2.220446049250313e-16,
        -1.0,
        0.0,
        0.0,
        1.0,
        2.220446049250313e-16,
        0.0,
        0.0,
        0.0,
        0.0,
        1.0
      ],
      "name": "Sketchfab_model"
    },
    {
      "children": [
        2
      ],
      "matrix": [
        0.009999999776482582,
        0.0,
        0.0,
        0.0,
        0.0,
        0.0,
        0.009999999776482582,
        0.0,
        0.0,
        -0.009999999776482582,
        0.0,
        0.0,
        0.0,
        0.0,
        0.0,
        1.0
      ],
      "name": "d12bf858c33d473ab27eb54678ef698f.fbx"
    },
    {
      "children": [
        3,
        7,
        11
      ],
      "name": "RootNode"
    },
    {
      "children": [
        4,
        5,
        6
      ],
      "matrix": [
        100.0,
        0.0,
        0.0,
        0.0,
        0.0,
        -1.629206793918314e-05,
        -99.99999999999868,
        0.0,
        0.0,
        99.99999999999868,
        -1.629206793918314e-05,
        0.0,
        0.0,
        0.0,
        0.0,
        1.0
      ],
      "name": "Extruded.002"
    },
    {
      "mesh": 0,
      "name": "Extruded.002_Material.001_0"
    },
    {
      "mesh": 1,
      "name": "Extruded.002_Material.001_0"
    },
    {
      "mesh": 2,
      "name": "Extruded.002_Material.001_0"
    },
    {
      "children": [
        8,
        9,
        10
      ],
      "matrix": [
        100.0,
        0.0,
        0.0,
        0.0,
        0.0,
        -1.629206793918314e-05,
        -99.99999999999868,
        0.0,
        0.0,
        99.99999999999868,
        -1.629206793918314e-05,
        0.0,
        0.0,
        0.0,
        0.0,
        1.0
      ],
      "name": "Sheet_124"
    },
    {
      "mesh": 3,
      "name": "Sheet_124_Material.001_0"
    },
    {
      "mesh": 4,
      "name": "Sheet_124_Material.001_0"
    },
    {
      "mesh": 5,
      "name": "Sheet_124_Material.001_0"
    },
    {
      "children": [
        12,
        13
      ],
      "matrix": [
        100.0,
        0.0,
        0.0,
        0.0,
        0.0,
        -1.629206793918314e-05,
        -99.99999999999868,
        0.0,
        0.0,
        99.99999999999868,
        -1.629206793918314e-05,
        0.0,
        0.0,
        0.0,
        0.0,
        1.0
      ],
      "name": "Sheet_95"
    },
    {
      "mesh": 6,
      "name": "Sheet_95_Material.001_0"
    },
    {
      "mesh": 7,
      "name": "Sheet_95_Material.001_0"
    }
  ],
  "samplers": [
    {
      "magFilter": 9729,
      "minFilter": 9987,
      "wrapS": 10497,
      "wrapT": 10497
    }
  ],
  "scene": 0,
  "scenes": [
    {
      "name": "Sketchfab_Scene",
      "nodes": [
        0
      ]
    }
  ],
  "textures": [
    {
      "sampler": 0,
      "source": 0
    },
    {
      "sampler": 0,
      "source": 1
    },
    {
      "sampler": 0,
      "source": 2
    }
  ]
}
